<?xml version="1.0" encoding="utf-8"?>
<!-- Generator: Adobe Illustrator 26.0.1, SVG Export Plug-In . SVG Version: 6.00 Build 0)  -->
<svg version="1.1" id="Layer_1" xmlns="http://www.w3.org/2000/svg" xmlns:xlink="http://www.w3.org/1999/xlink" x="0px" y="0px"
	 viewBox="0 0 300 300" style="enable-background:new 0 0 300 300;" xml:space="preserve">
<style type="text/css">
	.st0{display:none;fill:#F5F7F7;}
	.st1{fill:#EF7B1E;stroke:#F9DDCA;stroke-width:5;stroke-miterlimit:10;}
	.st2{fill:#15B7D3;stroke:#CDF5F9;stroke-width:5;stroke-miterlimit:10;}
	.st3{fill:none;stroke:#15B7D3;stroke-width:4.5003;stroke-miterlimit:10;}
	.st4{opacity:0.2;fill:#FFFFFF;}
</style>
<image style="display:none;overflow:visible;" width="761" height="739" xlink:href="../../WhatsApp Image 2026-01-27 at 09.45.37.jpeg"  transform="matrix(1 0 0 1 -231 -220)">
</image>
<rect x="-231" y="-220" class="st0" width="761" height="739"/>
<g>
	<circle class="st1" cx="60" cy="85.9" r="19.8"/>
	<circle class="st1" cx="238.2" cy="85.9" r="19.8"/>
	<circle class="st2" cx="148.6" cy="260" r="19.8"/>
	<circle class="st2" cx="272.9" cy="179.5" r="19.8"/>
	<circle class="st2" cx="27.1" cy="179.5" r="19.8"/>
	<circle class="st2" cx="148.6" cy="40" r="19.8"/>
	<line class="st3" x1="150" y1="70.1" x2="150" y2="224.5"/>
	<line class="st3" x1="242" y1="179.5" x2="58.4" y2="179.5"/>
	<line class="st3" x1="225.2" y1="113.8" x2="165.2" y2="230.3"/>
	<line class="st3" x1="249.3" y1="198.4" x2="178.5" y2="243.3"/>
	<line class="st3" x1="251.7" y1="114.1" x2="265.1" y2="147.7"/>
	<line class="st3" x1="46.8" y1="114.1" x2="33.4" y2="147.7"/>
	<line class="st3" x1="50.5" y1="198.4" x2="121.3" y2="243.3"/>
	<line class="st3" x1="73.9" y1="113.8" x2="133.9" y2="230.3"/>
	<path class="st3" d="M163.4,66.4c17.4,37.3,44.2,71.6,82,102.9"/>
	<path class="st3" d="M137,66.4c-17.4,37.3-44.2,71.6-82,102.9"/>
	<path class="st3" d="M184.5,103c8.1-2.6,16.5-4.5,25.4-5.7"/>
	<path class="st3" d="M116.4,103c-8.1-2.6-16.5-4.5-25.4-5.7"/>
</g>
<circle class="st4" cx="59.9" cy="84.3" r="8.3"/>
<circle class="st4" cx="238.2" cy="84.3" r="8.3"/>
<circle class="st4" cx="148.6" cy="38.1" r="8.3"/>
<circle class="st4" cx="148.6" cy="259" r="8.3"/>
<circle class="st4" cx="272.9" cy="177.6" r="8.3"/>
<circle class="st4" cx="27.1" cy="177.6" r="8.3"/>
</svg>
